<?xml version="1.0" standalone="no"?>
<!DOCTYPE svg PUBLIC "-//W3C//DTD SVG 20010904//EN"
 "http://www.w3.org/TR/2001/REC-SVG-20010904/DTD/svg10.dtd">
<svg version="1.0" xmlns="http://www.w3.org/2000/svg"
 width="421.000000pt" height="421.000000pt" viewBox="0 0 421.000000 421.000000"
 preserveAspectRatio="xMidYMid meet">
<metadata>
Created by potrace 1.14, written by Peter Selinger 2001-2017
</metadata>
<g transform="translate(0.000000,421.000000) scale(0.100000,-0.100000)"
fill="#000000" stroke="none">
<path d="M1140 3082 c-19 -8 -39 -14 -45 -13 -62 15 -87 11 -113 -19 -14 -16
-32 -30 -39 -30 -13 0 -54 -33 -110 -88 -23 -24 -33 -43 -33 -64 0 -17 -8 -40
-17 -50 -9 -10 -17 -36 -18 -56 0 -20 -9 -53 -19 -72 -25 -49 -29 -85 -13
-112 8 -13 15 -43 16 -68 2 -24 9 -57 17 -72 7 -14 16 -59 19 -100 3 -40 17
-122 30 -182 14 -60 25 -112 25 -115 0 -4 -15 -5 -33 -3 -30 3 -36 0 -50 -30
-19 -41 -10 -108 26 -198 46 -113 88 -156 136 -138 38 14 60 1 151 -91 47 -47
103 -100 125 -118 l40 -32 -33 -12 c-69 -24 -208 -98 -238 -125 -39 -37 -64
-75 -70 -109 -3 -16 -19 -47 -36 -71 -24 -34 -29 -50 -25 -73 5 -25 1 -36 -26
-63 -38 -38 -70 -86 -74 -109 -1 -9 -8 -29 -14 -45 -27 -66 -35 -155 -54 -599
-3 -66 -7 -132 -9 -147 l-3 -28 884 0 884 0 -6 68 c-3 37 -8 87 -10 112 -3 25
-7 72 -10 105 -3 33 -8 71 -10 85 -2 14 -7 57 -11 95 -3 39 -8 74 -11 78 -2 4
-7 52 -10 105 -5 84 -3 100 12 112 14 12 20 12 40 -1 20 -12 141 -121 245
-219 20 -19 69 -64 109 -100 41 -36 79 -70 85 -76 6 -5 19 -13 29 -17 9 -3 17
-10 17 -15 0 -5 35 -26 77 -47 66 -33 90 -39 152 -41 89 -4 156 19 204 68 34
34 83 108 73 108 -4 0 1 14 9 30 22 42 26 184 9 303 -7 53 -16 146 -19 205 -3
59 -7 125 -10 147 -4 40 -16 146 -20 175 -19 154 -52 255 -99 303 -27 28 -34
45 -39 93 -4 32 -10 76 -13 96 -6 34 -4 39 19 47 36 14 102 75 129 119 54 90
115 179 140 207 15 17 28 33 28 36 0 3 11 19 25 35 14 16 25 33 25 37 0 5 7
15 15 24 17 16 12 48 -10 72 -21 21 -63 16 -86 -10 -11 -13 -29 -34 -40 -47
-10 -12 -19 -27 -19 -32 0 -6 -5 -10 -10 -10 -6 0 -14 -8 -17 -17 -4 -10 -20
-31 -36 -48 -27 -28 -28 -28 -17 -5 7 14 25 41 39 60 36 48 51 72 57 93 4 9
10 17 14 17 4 0 13 14 20 30 7 17 16 30 21 30 4 0 11 10 15 23 4 12 10 24 14
27 18 14 36 67 28 86 -17 36 -44 46 -83 30 -19 -8 -35 -20 -35 -25 0 -6 -22
-42 -50 -81 -27 -39 -50 -75 -50 -80 0 -6 -4 -10 -10 -10 -5 0 -10 -5 -10 -10
0 -6 -5 -16 -10 -23 -6 -7 -22 -27 -35 -46 -14 -19 -25 -30 -25 -24 0 14 81
157 92 161 4 2 8 10 8 18 0 8 4 14 9 14 5 0 14 12 20 28 6 15 26 55 46 90 19
34 35 70 35 80 -1 28 -26 53 -59 58 -26 4 -34 0 -62 -38 -17 -24 -36 -54 -42
-68 -7 -14 -14 -27 -17 -30 -10 -9 -100 -172 -100 -181 0 -5 -4 -9 -10 -9 -5
0 -10 -6 -10 -14 0 -8 -7 -16 -15 -20 -8 -3 -15 -4 -15 -2 0 2 32 67 71 145
39 78 72 151 74 161 5 24 -24 60 -50 64 -39 6 -64 -27 -146 -192 -46 -92 -86
-169 -90 -172 -3 -3 -11 -15 -18 -27 -6 -13 -17 -23 -24 -23 -16 0 -43 45 -51
86 -10 46 -83 105 -119 96 -4 -1 -17 -4 -29 -5 -23 -4 -48 -33 -48 -55 0 -8
13 -31 29 -51 56 -72 59 -83 64 -269 4 -115 8 -135 58 -258 11 -27 10 -34 -3
-47 -12 -12 -15 -40 -15 -122 0 -95 -2 -108 -21 -126 -12 -11 -22 -23 -23 -27
0 -4 -3 -16 -5 -27 -6 -23 -5 -255 0 -264 2 -3 7 -39 11 -80 l7 -75 -63 59
c-35 33 -110 105 -165 160 -115 113 -140 135 -154 135 -6 0 -10 3 -10 8 0 7
-66 44 -105 58 -53 19 -102 22 -172 11 -38 -6 -42 -4 -45 16 -2 16 -10 22 -30
22 -31 1 -47 13 -32 23 5 4 18 28 27 53 17 43 21 58 33 118 6 30 32 81 42 82
81 8 86 17 86 161 -1 103 -4 131 -22 171 -22 50 -47 61 -75 32 -14 -13 -16 -8
-20 48 -3 34 -12 97 -21 141 -8 43 -18 96 -21 117 -15 100 -57 186 -102 210
-13 7 -23 17 -23 23 0 63 -56 137 -119 157 -20 7 -56 23 -81 37 -49 28 -146
61 -200 68 -19 3 -49 10 -66 15 -55 17 -78 21 -124 18 -57 -2 -74 -2 -130 4
-29 3 -58 -1 -80 -11z"/>
</g>
</svg>
